<?xml version="1.0" encoding="UTF-8"?>
<svg width="78px" height="78px" viewBox="0 0 78 78" version="1.1" xmlns="http://www.w3.org/2000/svg" xmlns:xlink="http://www.w3.org/1999/xlink">
    <!-- Generator: Sketch 52.2 (67145) - http://www.bohemiancoding.com/sketch -->
    <title>Group</title>
    <desc>Created with Sketch.</desc>
    <g id="Page-1" stroke="none" stroke-width="1" fill="none" fill-rule="evenodd">
        <g id="Group" fill="#202020">
            <path d="M76.0527344,33.9153748 L76.0527344,33.9143982 C75.4140625,32.7688904 74.1972656,32.0569763 72.8779297,32.0550232 L68.1816406,32.0481873 C67.7373047,32.0481873 67.3388672,31.7679139 67.2353515,31.3821717 C66.5888671,28.9827576 65.6318359,26.6673279 64.3906249,24.4993592 C64.189453,24.1497498 64.2724608,23.6683045 64.5878905,23.354828 L67.9169921,20.033537 C68.8515624,19.1018964 69.211914,17.7395917 68.8564452,16.4759198 C68.5498046,15.3899823 67.8203124,13.729826 66.0839843,11.9876386 C64.3457031,10.2454511 62.6874999,9.5120527 61.602539,9.2034589 C60.3408202,8.8470136 58.9804687,9.2024823 58.0439452,10.1331464 L54.7138671,13.4544355 C54.399414,13.7679121 53.9189452,13.8499433 53.5683593,13.6477949 C51.4033202,12.4007246 49.0908202,11.437834 46.6923827,10.7845137 C46.3076171,10.6800215 46.0292968,10.281584 46.0302733,9.8362715 L46.0361327,5.140959 C46.0380858,3.8206475 45.3291015,2.602874 44.1874999,1.962249 C43.2031249,1.4104912 41.5136718,0.7522881 39.0517577,0.7483818 C39.0458983,0.7483818 39.0390624,0.7483818 39.0322265,0.7483818 C36.5849609,0.7483818 34.8974609,1.4007256 33.9130859,1.9485771 C32.7685547,2.5862724 32.0566406,3.8020927 32.0546875,5.1224043 L32.0478516,9.8186934 C32.0478516,10.2630293 31.7675782,10.6614668 31.3837891,10.7649825 C28.9814453,11.4114669 26.6650391,12.3684981 24.4990235,13.6087325 C24.1494141,13.8099044 23.6669923,13.7268966 23.3544923,13.4114669 L20.0332032,10.0823653 C19.100586,9.147795 17.7382813,8.7923262 16.4775391,9.1429122 C15.3916016,9.4485763 13.7314453,10.1770919 11.9892579,11.9153731 C10.2441407,13.6546309 9.5107423,15.3147872 9.2041017,16.3997481 C8.8457033,17.6585372 9.201172,19.0208419 10.1337892,19.9563887 L13.4541017,23.2845156 C13.7675783,23.5999453 13.8496095,24.0823672 13.6484376,24.4319765 C12.4013673,26.5970156 11.4375001,28.9095156 10.7851564,31.3079531 C10.6806642,31.6917422 10.2812502,31.9700625 9.8369142,31.9700625 C9.8369142,31.9700625 9.8369142,31.9700625 9.8359376,31.9700625 L5.1406251,31.9632266 C5.138672,31.9632266 5.1376954,31.9632266 5.1357423,31.9632266 C3.8193361,31.9632266 2.6025392,32.672211 1.9609376,33.8167422 C1.4091798,34.8011172 0.7519532,36.4905703 0.748047,38.9495547 C0.7460939,41.4143985 1.4013673,43.1067813 1.951172,44.0911563 C2.5878908,45.2337344 3.8027345,45.9436954 5.1220704,45.9456485 L9.8164063,45.9515079 C10.2626954,45.9524845 10.6611329,46.2317813 10.7646485,46.6175235 C11.4111329,49.0169376 12.3681641,51.3323673 13.6093751,53.4993594 C13.8095704,53.8499453 13.7275392,54.3323672 13.4121095,54.6458438 L10.0820314,57.9671329 C9.1484376,58.8987735 8.7880861,60.2610782 9.1435548,61.522797 C9.4492189,62.6087345 10.178711,64.2698673 11.9150392,66.0120548 C13.6533204,67.7542423 15.3144533,68.4886173 16.4033204,68.7981876 C17.6591798,69.1507267 19.022461,68.797211 19.9560548,67.866547 L23.2861329,64.5452579 C23.6015626,64.2308048 24.0800782,64.1487735 24.4316407,64.3518985 C26.5927735,65.5970157 28.9062501,66.5608829 31.3076173,67.2151797 C31.6923829,67.3196719 31.9707032,67.7190859 31.9697267,68.1643985 L31.9638673,72.8587344 C31.9619142,74.1790469 32.6708985,75.3968203 33.8125001,76.0374453 C34.7968751,76.5892031 36.4863282,77.2474062 38.9482423,77.2513125 C38.9541017,77.2513125 38.9609376,77.2513125 38.9677735,77.2513125 C41.4150391,77.2513125 43.1025391,76.5989687 44.0869141,76.0511172 C45.2314453,75.4134219 45.9433594,74.1976016 45.9453125,72.8772891 L45.9521484,68.1819766 C45.9521484,67.7376407 46.2314453,67.3392032 46.6162109,67.2356875 C49.0166015,66.5892031 51.3330078,65.6321719 53.5009765,64.3909609 C53.8515624,64.1917421 54.3339843,64.2727968 54.6455077,64.5882265 L57.9667968,67.9173281 C58.8984374,68.8518984 60.2636718,69.2112734 61.5166015,68.8587343 C62.6054687,68.5530702 64.2685546,67.8226015 66.0107421,66.0843202 C67.7529296,64.3479921 68.4873046,62.6888124 68.7949218,61.604828 C69.1552734,60.3431092 68.798828,58.9788514 67.8671874,58.0442811 L64.5449218,54.714203 C64.2314452,54.3997499 64.1503906,53.917328 64.3515624,53.5677186 C65.5986327,51.4046327 66.5615233,49.0921327 67.2148436,46.691742 C67.3193358,46.3079529 67.7187498,46.0296326 68.1630858,46.0296326 C68.1630858,46.0296326 68.1630858,46.0296326 68.1640624,46.0296326 L72.8593749,46.0364685 C72.861328,46.0364685 72.8623046,46.0364685 72.8642577,46.0364685 C74.1826171,46.0364685 75.3974608,45.3294373 76.0341796,44.1917419 C76.5878905,43.2063903 77.2480468,41.5149841 77.251953,39.0501403 C77.2539062,36.591156 76.6015625,34.9007263 76.0527344,33.9153748 Z M73.4179688,42.7229919 C73.3076172,42.919281 73.1015626,43.0364685 72.8642579,43.0364685 C72.8642579,43.0364685 72.8642579,43.0364685 72.8632813,43.0364685 L68.1669922,43.0296326 C68.1660156,43.0296326 68.1650391,43.0296326 68.1640625,43.0296326 C66.3613281,43.0296326 64.78125,44.2112732 64.3203125,45.9046326 C63.7353516,48.0550232 62.8710937,50.129242 61.7519531,52.0706482 C60.8730469,53.597992 61.1484375,55.5559998 62.4208984,56.8333435 L65.743164,60.1634216 C65.9101562,60.3313904 65.9726562,60.5628357 65.9101562,60.7835388 C65.6982421,61.5257263 65.1777343,62.6790466 63.8925781,63.9602966 C62.6074219,65.2425232 61.4501953,65.7610778 60.7060547,65.9700622 C60.4833985,66.0345153 60.2578125,65.9671325 60.0908203,65.7981872 L56.7695312,62.4690856 C55.4970703,61.1917418 53.5390624,60.9114684 52.0097656,61.787445 C50.0654297,62.9007262 47.9882812,63.7591247 45.836914,64.3392028 C44.1396484,64.7952575 42.9541015,66.3753356 42.9521484,68.1790466 L42.9453125,72.8733825 C42.9453125,73.1116637 42.8261719,73.3196716 42.6279297,73.4300231 C41.9541016,73.8050231 40.7724609,74.2513122 38.9677735,74.2513122 C38.9628907,74.2513122 38.9570313,74.2513122 38.9521485,74.2513122 C37.1367188,74.2483825 35.9541016,73.7981872 35.2802735,73.4202575 C35.0820313,73.3089294 34.9638673,73.1009216 34.9638673,72.8626403 L34.9697267,68.1692809 C34.9726564,66.3645934 33.7910158,64.7815856 32.0957033,64.3206481 C29.9433595,63.733734 27.8681642,62.8694762 25.9296877,61.7522887 C25.3320315,61.4075621 24.6679689,61.2405699 24.004883,61.2405699 C22.973633,61.2405699 21.9443361,61.6458433 21.1669924,62.421234 L17.8369143,65.7425231 C17.6689455,65.9095153 17.4414065,65.9720153 17.2226565,65.912445 C16.4775393,65.7005309 15.3212893,65.17807 14.0400393,63.8938903 C12.7587893,62.6087341 12.2402346,61.4524841 12.0312502,60.70932 C11.9687502,60.4895934 12.0332033,60.2581481 12.2011721,60.0911559 L15.5312502,56.7698668 C16.8076174,55.4964293 17.0878908,53.5384215 16.2128908,52.0091246 C15.0996096,50.0647887 14.2412111,47.9876402 13.661133,45.8372496 C13.2050783,44.1409605 11.6259768,42.9544371 9.8212892,42.9515074 L5.1259767,42.945648 C4.888672,42.945648 4.6806642,42.8274839 4.5703126,42.6292418 C4.194336,41.9554137 3.7460938,40.7708434 3.748047,38.952484 C3.7509767,37.139984 4.201172,35.9563902 4.5771486,35.2835387 C4.6904298,35.0833434 4.8984377,34.9632262 5.1357424,34.9632262 C5.1357424,34.9632262 5.1357424,34.9632262 5.136719,34.9632262 L9.8330081,34.9700621 C9.8339847,34.9700621 9.8349612,34.9700621 9.8359378,34.9700621 C11.6386722,34.9700621 13.2187503,33.7884215 13.6796878,32.0950621 C14.2646487,29.945648 15.1289066,27.8714293 16.2480472,25.9290465 C17.1269534,24.4026793 16.8515628,22.4446715 15.5781253,21.1663512 L12.2578128,17.8382243 C12.089844,17.669279 12.027344,17.4388102 12.089844,17.2190837 C12.2998049,16.4759196 12.8203128,15.3225993 14.1074221,14.0403728 C15.3925783,12.7581462 16.5468752,12.2395916 17.2900393,12.0315837 C17.5126955,11.9690837 17.7421877,12.0335368 17.9091799,12.2015056 L21.230469,15.5306072 C22.5029299,16.8069744 24.4609378,17.0882244 25.9902346,16.2122478 C27.9326174,15.0999431 30.0097658,14.2415447 32.1640627,13.6614666 C33.8603518,13.2034588 35.0458986,11.6243572 35.0478518,9.8216228 L35.0546877,5.1263103 C35.0546877,4.88803 35.1738283,4.6800222 35.3720705,4.5696706 C36.0458986,4.1946706 37.2275393,3.7483815 39.0322267,3.7483815 C39.0371095,3.7483815 39.0429689,3.7483815 39.0478517,3.7483815 C40.8632814,3.7513112 42.0458986,4.2015065 42.7197267,4.5794362 C42.9179689,4.6907643 43.0361329,4.8987721 43.0361329,5.1370524 L43.0302735,9.8313883 C43.0273438,11.6360758 44.2089844,13.2181071 45.9042969,13.6790445 C48.053711,14.264982 50.1289063,15.1292398 52.0703125,16.2474039 C53.5976563,17.1272867 55.5546875,16.8528727 56.8330078,15.5784586 L60.1621094,12.2581461 C60.3310547,12.0911539 60.5605469,12.0276773 60.7822266,12.0892008 C61.5244141,12.3001383 62.678711,12.8216227 63.959961,14.1058024 C65.2402344,15.3909586 65.7597657,16.5472086 65.9687501,17.2893962 C66.0312501,17.5091228 65.9677735,17.7405681 65.7988282,17.9085368 L62.4697266,21.2298278 C61.1914063,22.5032653 60.9111328,24.4612731 61.7871094,25.99057 C62.9003906,27.9349059 63.7587891,30.0120544 64.3388672,32.162445 C64.7949219,33.8597106 66.375,35.0462341 68.178711,35.0481872 L72.8740235,35.0550231 C73.1113282,35.0550231 73.3203126,35.1751403 73.4316407,35.3753356 C73.8076173,36.0501403 74.2539063,37.2347106 74.2519532,39.0472106 C74.2490234,40.8636169 73.7978516,42.0481873 73.4179688,42.7229919 Z" id="Shape" fill-rule="nonzero"></path>
            <path d="M51.5214844,50.794281 C48.234375,54.2815857 43.7890625,56.2015076 39,56.2015076 C38.9921875,56.2015076 38.984375,56.2015076 38.9765625,56.2015076 C29.4921875,56.1878357 21.7861328,48.4612732 21.7988281,38.9768982 C21.8020019,36.9362488 22.1723022,34.9617615 22.864563,33.0802918 C23.1520386,33.467743 23.5935059,33.6966248 24.0595703,33.6966248 C24.2871094,33.6966248 24.5175781,33.644867 24.7333984,33.5364686 C25.4736328,33.1634217 25.7705078,32.261078 25.3984375,31.5218202 L23.9609375,28.6702577 C23.78125,28.3147889 23.46875,28.0452577 23.0908203,27.9202577 C22.7109375,27.7962343 22.3007812,27.8255311 21.9453125,28.0061952 L19.0927734,29.4446718 C18.3535156,29.8167421 18.0566406,30.7190859 18.4296875,31.4593202 C18.7229004,32.0403749 19.3434448,32.3415223 19.9542236,32.2656556 C19.1941528,34.4102479 18.8019409,36.6578675 18.7988281,38.972992 C18.7841797,50.1116639 27.8339843,59.1858826 38.9726562,59.2015076 C38.9814453,59.2015076 38.9892578,59.2015076 38.9980468,59.2015076 C44.5419921,59.2015076 49.9013671,56.888031 53.705078,52.8509217 C54.2734374,52.2483826 54.2451171,51.2991639 53.6416014,50.7308045 C53.0410156,50.1643982 52.0898438,50.1907654 51.5214844,50.794281 Z" id="Path"></path>
            <path d="M38.9863281,48.9934998 C38.9912109,48.9934998 38.9951172,48.9934998 38.9990234,48.9934998 C44.5039062,48.9934998 48.9863281,44.5188904 48.993164,39.013031 C49,33.5022888 44.5234375,29.0140076 39.0136719,29.0071716 C39.0087891,29.0071716 39.0039063,29.0071716 38.9990235,29.0071716 C36.334961,29.0071716 33.8291016,30.0433044 31.9433594,31.9241638 C30.0527344,33.8089294 29.0097656,36.3177185 29.006836,38.9866638 C29,44.4964294 33.4765625,48.9856873 38.9863281,48.9934998 Z M34.0615234,34.0481873 C35.3818359,32.7317811 37.1347656,32.0071717 38.9990234,32.0071717 C39.0029296,32.0071717 39.0068359,32.0071717 39.0097656,32.0071717 C42.8652344,32.0120545 45.9980468,35.1526795 45.993164,39.0091248 C45.9912109,40.8772889 45.2607421,42.6321717 43.9384765,43.9515076 C42.618164,45.2688904 40.8642577,45.9934998 38.9990234,45.9934998 C38.9960937,45.9934998 38.993164,45.9934998 38.9902343,45.9934998 C35.1347655,45.9876404 32.0019531,42.8460389 32.0068359,38.9905701 C32.0087891,37.122406 32.7392578,35.3675232 34.0615234,34.0481873 Z" id="Shape" fill-rule="nonzero"></path>
            <path d="M59.5742188,30.9017029 C58.9227906,30.5195618 58.107483,30.6895447 57.651001,31.2626038 C54.5443726,23.780304 47.1983643,18.8103924 39.0283203,18.799162 C39.015625,18.799162 39.0029297,18.799162 38.9902344,18.799162 C37.9111328,18.799162 36.8261719,18.8860761 35.7646485,19.0559979 C34.9462891,19.1878338 34.3906251,19.9573651 34.5214844,20.7757245 C34.6533203,21.5931092 35.4179688,22.1477967 36.241211,22.0188905 C37.1455079,21.8724061 38.0703126,21.7991639 38.9902344,21.7991639 C39.0019532,21.7991639 39.0126953,21.7991639 39.0234375,21.7991639 C45.7786865,21.8082581 51.8754883,25.7936097 54.6461792,31.8558656 C54.0645752,31.7780458 53.46698,32.0470887 53.1533203,32.5862733 C52.7353515,33.3020936 52.9765625,34.2200624 53.6914062,34.6380311 L56.4492187,36.2493592 C56.6874999,36.3890076 56.9472656,36.4544373 57.2050781,36.4544373 C57.7207031,36.4544373 58.2226562,36.1888123 58.5009765,35.7112732 L60.1123046,32.9534607 C60.5302734,32.2376404 60.2890625,31.3196716 59.5742188,30.9017029 Z" id="Path"></path>
        </g>
    </g>
</svg>