<?xml version="1.0" encoding="UTF-8"?>
<svg width="77px" height="66px" viewBox="0 0 77 66" version="1.1" xmlns="http://www.w3.org/2000/svg" xmlns:xlink="http://www.w3.org/1999/xlink">
    <!-- Generator: Sketch 52.2 (67145) - http://www.bohemiancoding.com/sketch -->
    <title>Group</title>
    <desc>Created with Sketch.</desc>
    <g id="Page-1" stroke="none" stroke-width="1" fill="none" fill-rule="evenodd">
        <g id="Group" fill="#202020">
            <path d="M70.2285156,30.1274414 L56.0380859,15.9365234 C53.4267578,13.3251953 49.1787109,13.3251953 46.5673828,15.9365234 L45.1137695,17.3911132 C42.930542,17.0828857 40.6340332,17.758789 38.9589843,19.4335937 L37.7123412,20.6805419 C35.6256713,20.2539062 33.3707274,20.845581 31.7548827,22.4614257 L30.7783202,23.4382323 L24.3339843,16.9936522 C22.2011718,14.8608397 18.7324218,14.8608397 16.5996093,16.9936522 C14.4677734,19.1254881 14.4677734,22.5952147 16.5996093,24.7270506 L33.8966674,42.0241087 C32.984558,43.2254637 32.4833984,44.6798704 32.4833984,46.2143553 C32.4833984,48.0722655 33.2080078,49.8188475 34.5214843,51.1323241 L42.9658202,59.57666 C44.0742186,60.6850584 47.0624999,63.3959959 50.8759764,64.6274412 C52.205078,65.0566404 53.5136717,65.2700193 54.7900389,65.2700193 C57.970703,65.2700193 60.9501951,63.944824 63.5556639,61.338867 L73.3134764,51.5810545 C80.0507812,44.8432617 75.1601562,35.0595703 70.2285156,30.1274414 Z M71.1923828,49.4599609 L61.4345703,59.2177734 C58.5507812,62.1010742 55.3964844,62.9360351 51.7978515,61.7724609 C48.6064453,60.7416992 46.0419921,58.4101562 45.086914,57.4555664 L36.6425781,49.0112305 C35.8955078,48.2641602 35.4833984,47.2709961 35.4833984,46.2143555 C35.4833984,45.4859009 35.6917114,44.7938843 36.0581665,44.1856079 L42.7041016,50.831543 C42.9970704,51.1245118 43.3808594,51.2709961 43.7646485,51.2709961 C44.1484376,51.2709961 44.5322266,51.1245117 44.8251954,50.831543 C45.4111329,50.2460938 45.4111329,49.2958985 44.8251954,48.7104492 L37.029297,40.9145508 C37.0284425,40.9136963 37.0281984,40.9124756 37.0273439,40.9116211 C37.0264894,40.9107666 37.0252687,40.9105225 37.0244142,40.909668 L18.7207031,22.605957 C17.758789,21.6435547 17.758789,20.0771484 18.7207031,19.1147461 C19.6552734,18.1816406 21.2802734,18.1826172 22.2128906,19.1147461 L34.9384765,31.8408203 C35.524414,32.4267578 36.4736327,32.4267578 37.0595703,31.8408203 C37.6455078,31.2553711 37.6455078,30.3056641 37.0595703,29.7197265 L32.8994141,25.5593871 L33.8759766,24.5825194 C35.2617188,23.1962889 37.5175782,23.1962889 38.9052735,24.5825194 L41.9863282,27.6640624 C42.279297,27.9570312 42.663086,28.1035155 43.0468751,28.1035155 C43.4306642,28.1035155 43.8144532,27.9570311 44.107422,27.6640624 C44.6933595,27.0786132 44.6933595,26.1289062 44.107422,25.5429686 L41.0263673,22.4614256 C40.8824464,22.3175047 40.7318116,22.184326 40.5783082,22.0565794 L41.0800782,21.5546873 C42.7392579,19.8950193 45.4414063,19.8940428 47.1025391,21.5546873 L49.6875,24.1396484 C49.9804688,24.4326172 50.3642578,24.5791015 50.7480469,24.5791015 C51.131836,24.5791015 51.515625,24.4326171 51.8085938,24.1396484 C52.3945313,23.5541992 52.3945313,22.6040039 51.8085938,22.0185546 L49.2236329,19.4335937 C48.8968507,19.1067504 48.5443116,18.8220214 48.1757203,18.5706787 L48.6884766,18.0576172 C50.1298828,16.616211 52.475586,16.616211 53.9169922,18.0576172 L68.1074219,32.2485352 C70.9296875,35.0712891 76.9853516,43.6660156 71.1923828,49.4599609 Z" id="Shape" fill-rule="nonzero"></path>
            <path d="M17.2324219,29.8730469 C15.5771485,29.40625 14.0546875,28.5122071 12.8310547,27.288086 C10.9179688,25.3750001 9.8642578,22.8310548 9.8642578,20.1254883 C9.8642578,17.4199218 10.9179687,14.8764649 12.8310547,12.9633789 C14.7441407,11.0502929 17.2880859,9.996582 19.9931641,9.996582 C22.6982423,9.996582 25.2421875,11.0502929 27.1552735,12.9638672 C28.4609376,14.2685547 29.3837891,15.8994141 29.8242188,17.6801758 C30.0234376,18.4838867 30.8369141,18.9746094 31.640625,18.7758789 C32.4443359,18.5766601 32.9355469,17.7636719 32.7363281,16.9594727 C32.1640625,14.6484375 30.9677734,12.5332032 29.2763672,10.8422852 C26.796875,8.3623047 23.5,6.996582 19.9931641,6.996582 C16.4863282,6.996582 13.1894532,8.3623047 10.709961,10.8422851 C8.2294922,13.3217773 6.8642579,16.6186523 6.8642579,20.1254882 C6.8642579,23.6323241 8.2294923,26.9296874 10.709961,29.4091796 C12.2949219,30.9951171 14.2695313,32.1542968 16.4179688,32.7607421 C16.553711,32.798828 16.6914063,32.8173827 16.8261719,32.8173827 C17.4804688,32.8173827 18.0820313,32.3852538 18.2685547,31.724121 C18.4941406,30.9267578 18.0302734,30.0981445 17.2324219,29.8730469 Z" id="Path"></path>
            <path d="M19.7822266,3.609375 C24.1386719,3.609375 28.234375,5.3056641 31.3144532,8.3852539 C33.4160157,10.4873047 34.9013673,13.1137695 35.6103516,15.9804687 C35.7792969,16.6635742 36.3916016,17.1206054 37.0654297,17.1206054 C37.1845703,17.1206054 37.3056641,17.105957 37.4267578,17.0761718 C38.2304687,16.8774413 38.7216797,16.0639648 38.5224609,15.2597656 C37.6826171,11.8632812 35.9228515,8.7529297 33.4355468,6.2641601 C29.7890624,2.6176757 24.939453,0.6093749 19.7822265,0.6093749 C18.9541015,0.6093749 18.2822265,1.2807616 18.2822265,2.1093749 C18.2822265,2.9379882 18.9541016,3.609375 19.7822266,3.609375 Z" id="Path"></path>
            <path d="M15.3398438,35.6083984 C12.6748047,34.8574218 10.2246094,33.4179687 8.2529297,31.4467773 C5.1728516,28.3666992 3.4765625,24.2719726 3.4765625,19.9160156 C3.4765625,19.0874023 2.8046875,18.4160156 1.9765625,18.4160156 C1.1484375,18.4160156 0.4765625,19.0874023 0.4765625,19.9160156 C0.4765625,25.0732422 2.4853516,29.921875 6.1318359,33.5678711 C8.4648437,35.9013672 11.368164,37.6054688 14.5253906,38.4960938 C14.6621094,38.5341797 14.7988281,38.5527344 14.9335937,38.5527344 C15.5878906,38.5527344 16.1894531,38.1206055 16.3759765,37.4594727 C16.6015625,36.6621094 16.1367188,35.8334961 15.3398438,35.6083984 Z" id="Path"></path>
        </g>
    </g>
</svg>