<?xml version="1.0" encoding="UTF-8"?>
<svg width="66px" height="68px" viewBox="0 0 66 68" version="1.1" xmlns="http://www.w3.org/2000/svg" xmlns:xlink="http://www.w3.org/1999/xlink">
    <!-- Generator: Sketch 52.2 (67145) - http://www.bohemiancoding.com/sketch -->
    <title>Shape</title>
    <desc>Created with Sketch.</desc>
    <g id="Page-1" stroke="none" stroke-width="1" fill="none" fill-rule="evenodd">
        <path d="M64.9501953,64.5849609 L52.5410156,53.9453125 C65.2329101,37.2871094 63.9672851,16.7236328 60.5981445,2.2587891 C60.4692383,1.7050782 60.0380859,1.2714844 59.4848633,1.1396485 C58.9340821,1.0087891 58.3510742,1.2001954 57.9868164,1.6357423 L34.9952393,29.1083984 L10.0517578,1.2753906 C9.6977539,0.8798828 9.1621094,0.7050781 8.6425781,0.8046875 C8.1230469,0.9082031 7.696289,1.2773437 7.5200195,1.7773437 C0.9542236,20.3866577 6.9320068,38.2207641 9.4359741,44.3180541 C6.21698,44.3362427 1.25,45.7175903 0.5844727,51.125 C0.0444336,55.5146484 3.5576172,61.4394531 3.7075196,61.6894531 C3.9785157,62.1425781 4.4667969,62.4189453 4.9941407,62.4189453 C4.9951173,62.4189453 4.9960938,62.4189453 4.9975587,62.4189453 C5.525879,62.4179687 6.0146485,62.1386719 6.2841798,61.6845703 L9.0468751,57.0263672 L63.6992189,67.1982422 C63.7910158,67.2158203 63.8833009,67.2236328 63.9741212,67.2236328 C64.5429689,67.2236328 65.0742189,66.8984375 65.3266603,66.3710937 C65.6196289,65.7587891 65.465332,65.0263672 64.9501953,64.5849609 Z M9.5610352,5.2236328 L33.0499268,31.4329224 L21.5854492,45.1318359 C19.9493408,44.9954834 16.0411987,44.6776123 12.7740478,44.4777221 C11.1727295,40.843811 4.2474365,23.442749 9.5610352,5.2236328 Z M8.565918,53.8857422 C8.4741211,53.8681641 8.3823242,53.8603516 8.2910157,53.8603516 C7.7685548,53.8603516 7.2749024,54.1337891 7.0014649,54.5947266 L5.0864258,57.8232422 C4.2124024,55.8876953 3.3344727,53.3427734 3.5620117,51.4921875 C4.1274414,46.8964844 9.8920898,47.3144531 10.2050781,47.34375 C14.4570312,47.5283203 22.0307617,48.1806641 22.1069336,48.1865234 C22.5883789,48.2265625 23.0712891,48.0302734 23.3862305,47.6552734 L58.3178711,5.915039 C61.0717773,19.8183593 61.3164063,38.3652343 49.3217773,53.1884765 C49.1606445,53.3867187 49.0488281,53.649414 49.0053711,53.9013671 C48.9150391,54.4218749 49.105957,54.9521483 49.5068359,55.2958983 L58.7573242,63.2265624 L8.565918,53.8857422 Z" id="Shape" fill="#202020" fill-rule="nonzero"></path>
    </g>
</svg>