<?xml version="1.0" encoding="utf-8"?>
<!-- Generator: Adobe Illustrator 22.1.0, SVG Export Plug-In . SVG Version: 6.00 Build 0)  -->
<svg version="1.1" id="Layer_1" xmlns="http://www.w3.org/2000/svg" xmlns:xlink="http://www.w3.org/1999/xlink" x="0px" y="0px"
	 viewBox="0 0 437.4 110.3" style="enable-background:new 0 0 437.4 110.3;" xml:space="preserve">
<style type="text/css">
	.st0{fill:#21C16C;}
</style>
<title>logo-color-black</title>
<path d="M57.2,58.5c-7.3,0-13.1,2.9-17.2,8.6c-2.8-5.4-8.4-8.7-14.5-8.6c-5.8-0.2-11.3,2.3-15,6.8v-1c0-2.9-2.4-5.3-5.3-5.3
	c-2.9,0-5.2,2.4-5.2,5.3v40.3c0.1,2.9,2.6,5.2,5.5,5c2.7-0.1,4.9-2.3,5-5V76.7c2.4-3.9,6-8.3,12.5-8.3c6.2,0,8.6,3,8.6,10.8v25.4
	c0.1,2.9,2.6,5.2,5.5,5c2.7-0.1,4.9-2.3,5-5V76.7c2.4-3.9,6-8.3,12.5-8.3c6.2,0,8.6,3,8.6,10.8v25.4c0.1,2.9,2.6,5.2,5.5,5
	c2.7-0.1,4.9-2.3,5-5V77.5C73.9,68.3,68.7,58.5,57.2,58.5z"/>
<path d="M107.6,58.5c-5.7,0-11.4,1.2-16.6,3.5c-1.9,0.7-3.1,2.5-3.1,4.5c0,2.5,1.9,4.5,4.4,4.6c0,0,0.1,0,0.1,0c0.5,0,1-0.1,1.5-0.2
	c3.9-1.4,8-2.2,12.2-2.2c8.1,0,11.5,3,11.6,10.4h-10.4C93.2,79,84.7,85,84.7,95.2c0,9.9,8.2,15.1,16.3,15.1c6.1,0.2,12-1.9,16.7-5.8
	v0.1c0.1,2.9,2.6,5.2,5.5,5c2.7-0.1,4.9-2.3,5-5V78C128.2,68.3,121.8,58.5,107.6,58.5z M104.2,100.8c-5.9,0-9-2.2-9-6.5
	c0-1.6,0-6.4,13.2-6.4h9.3v6.5C114.9,97.4,109.8,100.8,104.2,100.8z"/>
<path d="M148.3,39.7h0.6c3.2,0,5.8,2.6,5.8,5.8v0.4c0,3.2-2.6,5.8-5.8,5.8h-0.6c-3.2,0-5.8-2.6-5.8-5.8v-0.4
	C142.5,42.3,145.1,39.7,148.3,39.7z"/>
<path d="M148.5,58.9c-2.9,0-5.2,2.3-5.2,5.2c0,0,0,0.1,0,0.1v40.3c0.1,2.9,2.6,5.2,5.5,5c2.7-0.1,4.9-2.3,5-5V64.2
	C153.8,61.3,151.5,58.9,148.5,58.9C148.5,58.9,148.5,58.9,148.5,58.9z"/>
<path d="M175.2,38.2c-2.9,0-5.2,2.3-5.2,5.2c0,0,0,0.1,0,0.1v61c0.1,2.9,2.6,5.2,5.5,5c2.7-0.1,4.9-2.3,5-5v-61
	c0-2.9-2.3-5.3-5.2-5.3C175.2,38.2,175.2,38.2,175.2,38.2z"/>
<path d="M216.9,58.5c-7.5,0-13.7,2.8-17.9,8.1c-3.6,4.6-5.6,10.9-5.6,17.8c0,16.2,9.5,25.9,25.3,25.9c8.7,0,13-2,17-4.3
	c1.7-0.8,2.8-2.5,3-4.4c0-2.6-2.1-4.7-4.6-4.7c0,0-0.1,0-0.1,0c-0.7,0-1.5,0.1-2.1,0.5c-3.8,2-8,2.9-12.2,2.8
	c-8.8,0-14-4.1-15.3-11.9H235c2.8,0.1,5.2-2.1,5.3-4.9c0-0.1,0-0.2,0-0.4C240.3,66.2,228.2,58.5,216.9,58.5z M216.9,67.7
	c4.4,0,11.8,2.5,12.8,11.7h-25.6C205.1,71.3,211.1,67.7,216.9,67.7z"/>
<path d="M276.8,58.5h-0.5c-5,0-9.6,2.4-13.8,7v-1.2c0-2.9-2.4-5.3-5.3-5.3c-2.9,0-5.3,2.4-5.2,5.3v40.3c0.1,2.9,2.6,5.2,5.5,5
	c2.7-0.1,4.9-2.3,5-5V76.3c3.4-4.9,8.2-7.6,13.6-7.6h0.5c2.8,0.2,5.1-1.9,5.3-4.7c0-0.1,0-0.2,0-0.3c0.1-2.8-2.2-5.2-5-5.3
	C276.9,58.5,276.8,58.5,276.8,58.5z"/>
<path class="st0" d="M422.4,0H316c-8.3,0-15,6.7-15,15v95.3l20.7-20.5h100.8c8.3,0,15-6.7,15-15V15C437.4,6.7,430.7,0,422.4,0z
	 M332.9,67.2c0,2.2-1.8,4-4,4s-4-1.8-4-4V24.7c0-2.2,1.8-4,4-4s4,1.8,4,4V67.2z M351.5,67.2c0,2.2-1.8,4-4,4s-4-1.8-4-4V39.1
	c0-2.2,1.8-4,4-4s4,1.8,4,4V67.2z M352,26.3c0,2.4-1.9,4.3-4.3,4.3h-0.4c-2.4,0-4.3-1.9-4.3-4.3V26c0-2.4,1.9-4.3,4.3-4.3h0.4
	c2.4,0,4.3,1.9,4.3,4.3V26.3z M380.2,70.2c-1.8,0.9-3.8,1.3-5.9,1.3c-6.9,0-10.6-3.3-10.6-9.6V42.6h-3.6c-1.2,0-2.2-0.9-2.2-2.1
	c0,0,0-0.1,0-0.1c0-0.7,0.4-1.4,1-1.9l8.9-8.7c0.5-0.5,1.1-0.8,1.8-0.9c1.2,0,2.3,1,2.3,2.2c0,0,0,0,0,0.1v4.2h6.4
	c2,0,3.6,1.6,3.6,3.6s-1.6,3.6-3.6,3.6l0,0h-6.4v18.8c0,2.7,1.4,2.9,3.3,2.9c0.8,0,1.6-0.1,2.3-0.3c0.5-0.2,1.1-0.2,1.6-0.3
	c1.8,0,3.3,1.5,3.4,3.4C382.3,68.4,381.4,69.7,380.2,70.2z M404.7,64c2.9,0.1,5.8-0.6,8.4-1.9c0.5-0.3,1.1-0.4,1.6-0.4
	c2,0,3.6,1.5,3.6,3.5c0,0,0,0,0,0.1c-0.1,1.4-0.9,2.7-2.2,3.3c-2.8,1.6-5.8,3-12,3c-11.2,0-18-6.9-18-18.4c0-13.5,9-18.4,16.6-18.4
	c11.4,0,16.6,9.1,16.6,17.5c0.1,2.1-1.6,3.9-3.7,4c-0.1,0-0.2,0-0.3,0h-21C395.4,61.3,399,64,404.7,64z"/>
<path class="st0" d="M402.9,41.9c-4.4-0.1-8.1,3.2-8.5,7.6h17.1C411,45.1,407.3,41.8,402.9,41.9z"/>
</svg>
