<?xml version="1.0" encoding="UTF-8"?>
<svg width="70px" height="70px" viewBox="0 0 70 70" version="1.1" xmlns="http://www.w3.org/2000/svg" xmlns:xlink="http://www.w3.org/1999/xlink">
    <!-- Generator: Sketch 52.2 (67145) - http://www.bohemiancoding.com/sketch -->
    <title>Untitled</title>
    <desc>Created with Sketch.</desc>
    <g id="Page-1" stroke="none" stroke-width="1" fill="none" fill-rule="evenodd">
        <g id="Group" fill="#202020">
            <path d="M59.3427734,17.328125 L52.6713867,17.328125 L52.6713867,10.6572266 C52.6713867,4.953125 48.0307617,0.3125 42.3261719,0.3125 L10.6572266,0.3125 C4.9526368,0.3125 0.3120118,4.953125 0.3120118,10.6572266 L0.3120118,42.3261719 C0.3120118,48.03125 4.9526368,52.671875 10.6572266,52.671875 L17.3286133,52.671875 L17.3286133,59.3427734 C17.3286133,65.046875 21.9692383,69.6875 27.6738281,69.6875 L59.3427734,69.6875 C65.0473632,69.6875 69.6879882,65.046875 69.6879882,59.3427734 L69.6879882,27.6738281 C69.6879883,21.96875 65.0473633,17.328125 59.3427734,17.328125 Z M3.3120117,42.3261719 L3.3120117,10.6572266 C3.3120117,6.6074219 6.6069336,3.3125 10.6572265,3.3125 L42.3261718,3.3125 C46.3764648,3.3125 49.6713866,6.6074219 49.6713866,10.6572266 L49.6713866,42.3261719 C49.6713866,46.3769531 46.3764647,49.671875 42.3261718,49.671875 L10.6572266,49.671875 C6.6069336,49.671875 3.3120117,46.3769531 3.3120117,42.3261719 Z M66.6879883,59.3427734 C66.6879883,63.3925781 63.3930664,66.6875 59.3427735,66.6875 L27.6738281,66.6875 C23.6235351,66.6875 20.3286133,63.3925781 20.3286133,59.3427734 L20.3286133,52.671875 L42.3261719,52.671875 C48.0307617,52.671875 52.6713867,48.03125 52.6713867,42.3261719 L52.6713867,20.328125 L59.3427734,20.328125 C63.3930664,20.328125 66.6879882,23.6230469 66.6879882,27.6738281 L66.6879882,59.3427734 Z" id="Shape" fill-rule="nonzero"></path>
            <path d="M20.121582,27.7548828 L25.7290039,27.7548828 L25.7290039,33.3623047 C25.7290039,34.1904297 26.4003906,34.8623047 27.2290039,34.8623047 C28.0576172,34.8623047 28.7290039,34.1904297 28.7290039,33.3623047 L28.7290039,27.7548828 L34.3364258,27.7548828 C35.1650391,27.7548828 35.8364258,27.0830078 35.8364258,26.2548828 C35.8364258,25.4267578 35.1650391,24.7548828 34.3364258,24.7548828 L28.7290039,24.7548828 L28.7290039,19.1474609 C28.7290039,18.3193359 28.0576172,17.6474609 27.2290039,17.6474609 C26.4003906,17.6474609 25.7290039,18.3193359 25.7290039,19.1474609 L25.7290039,24.7548828 L20.121582,24.7548828 C19.2929687,24.7548828 18.621582,25.4267578 18.621582,26.2548828 C18.621582,27.0830078 19.2929688,27.7548828 20.121582,27.7548828 Z" id="Path"></path>
        </g>
    </g>
</svg>